<?xml version="1.0" encoding="UTF-8" standalone="no"?>
<!DOCTYPE svg PUBLIC "-//W3C//DTD SVG 1.1//EN" "http://www.w3.org/Graphics/SVG/1.1/DTD/svg11.dtd">
<svg width="100%" height="100%" viewBox="0 0 721 720" version="1.1" xmlns="http://www.w3.org/2000/svg" xmlns:xlink="http://www.w3.org/1999/xlink" xml:space="preserve" xmlns:serif="http://www.serif.com/" style="fill-rule:evenodd;clip-rule:evenodd;stroke-linejoin:round;stroke-miterlimit:2;">
    <g>
        <path d="M353.2,203.1L313.6,203.1C309.9,203.1 306.9,206.1 306.9,209.8L306.9,211.1C306.9,214.8 309.9,217.8 313.6,217.8L353.2,217.8L353.2,229.5L292.1,229.5C288.4,229.5 285.4,232.5 285.4,236.2L285.4,237.5C285.4,241.2 288.4,244.2 292.1,244.2L353.1,244.2L353.1,261.4C311.3,262.5 272.2,272.5 242.4,290C209.3,309.3 191.2,335.4 191.2,363.4C191.2,391.5 209.3,417.5 242.3,436.8C274,455.4 316,465.6 360.6,465.6C405.1,465.6 447.1,455.4 478.9,436.8C511.8,417.5 530,391.4 530,363.4C530,335.3 511.9,309.3 478.9,290.1C448.9,272.5 409.8,262.4 367.9,261.4L367.9,244.3L428.9,244.3C432.6,244.3 435.6,241.3 435.6,237.6L435.6,236.3C435.6,232.6 432.6,229.6 428.9,229.6L367.9,229.6L367.9,217.9L407.5,217.9C411.2,217.9 414.2,214.9 414.2,211.2L414.2,209.9C414.2,206.2 411.2,203.2 407.5,203.2L367.9,203.2L367.9,192.6C367.9,188.9 364.9,185.9 361.2,185.9L359.9,185.9C356.2,185.9 353.2,188.9 353.2,192.6L353.2,203.1ZM515.2,363.4C515.2,411.5 445.8,450.7 360.5,450.7C275.2,450.7 205.8,411.5 205.8,363.4C205.8,315.3 275.2,276.1 360.5,276.1C445.8,276.1 515.2,315.3 515.2,363.4Z" style="fill-rule:nonzero;"/>
        <g transform="matrix(5.60043,0,0,6.28183,-1097.45,-1835.84)">
            <g transform="matrix(12,0,0,12,236.767,354.302)">
                <path d="M0.32,-0.108L0.205,-0.564L0.205,-0.07C0.205,-0.042 0.199,-0.022 0.187,-0.008C0.175,0.005 0.158,0.012 0.138,0.012C0.119,0.012 0.103,0.005 0.09,-0.008C0.078,-0.022 0.072,-0.042 0.072,-0.07L0.072,-0.636C0.072,-0.667 0.08,-0.689 0.096,-0.699C0.112,-0.71 0.134,-0.716 0.162,-0.716L0.207,-0.716C0.234,-0.716 0.254,-0.713 0.266,-0.708C0.278,-0.704 0.287,-0.695 0.293,-0.682C0.299,-0.669 0.306,-0.649 0.313,-0.62L0.417,-0.228L0.521,-0.62C0.528,-0.649 0.535,-0.669 0.541,-0.682C0.547,-0.695 0.556,-0.704 0.568,-0.708C0.58,-0.713 0.6,-0.716 0.627,-0.716L0.672,-0.716C0.7,-0.716 0.722,-0.71 0.738,-0.699C0.754,-0.689 0.762,-0.667 0.762,-0.636L0.762,-0.07C0.762,-0.042 0.756,-0.022 0.744,-0.008C0.732,0.005 0.715,0.012 0.695,0.012C0.676,0.012 0.66,0.005 0.647,-0.008C0.635,-0.022 0.629,-0.042 0.629,-0.07L0.629,-0.564L0.514,-0.108C0.507,-0.078 0.501,-0.057 0.496,-0.043C0.491,-0.029 0.482,-0.016 0.47,-0.005C0.457,0.007 0.439,0.012 0.417,0.012C0.4,0.012 0.386,0.009 0.374,0.001C0.362,-0.006 0.353,-0.015 0.347,-0.027C0.34,-0.038 0.335,-0.051 0.331,-0.065C0.328,-0.079 0.324,-0.093 0.32,-0.108Z" style="fill-rule:nonzero;"/>
            </g>
        </g>
        <g transform="matrix(5.07291,0,0,6.28183,-751.337,-1835.29)">
            <g transform="matrix(12,0,0,12,236.767,354.302)">
                <path d="M0.622,-0.215C0.622,-0.172 0.611,-0.133 0.589,-0.098C0.566,-0.064 0.534,-0.037 0.491,-0.017C0.448,0.002 0.397,0.012 0.338,0.012C0.267,0.012 0.209,-0.001 0.163,-0.028C0.131,-0.047 0.104,-0.073 0.084,-0.105C0.063,-0.137 0.053,-0.168 0.053,-0.198C0.053,-0.216 0.059,-0.231 0.072,-0.243C0.084,-0.256 0.099,-0.262 0.118,-0.262C0.133,-0.262 0.146,-0.257 0.157,-0.248C0.168,-0.238 0.177,-0.223 0.184,-0.204C0.193,-0.181 0.203,-0.162 0.214,-0.147C0.224,-0.132 0.239,-0.119 0.258,-0.109C0.278,-0.099 0.303,-0.094 0.334,-0.094C0.377,-0.094 0.412,-0.104 0.439,-0.124C0.466,-0.144 0.479,-0.169 0.479,-0.199C0.479,-0.223 0.472,-0.242 0.457,-0.257C0.443,-0.272 0.424,-0.283 0.401,-0.291C0.378,-0.299 0.347,-0.307 0.309,-0.316C0.258,-0.328 0.215,-0.342 0.18,-0.358C0.145,-0.374 0.118,-0.396 0.097,-0.424C0.077,-0.452 0.067,-0.486 0.067,-0.528C0.067,-0.567 0.078,-0.602 0.099,-0.633C0.121,-0.663 0.152,-0.687 0.192,-0.703C0.233,-0.72 0.281,-0.728 0.336,-0.728C0.38,-0.728 0.418,-0.723 0.45,-0.712C0.482,-0.701 0.509,-0.686 0.53,-0.668C0.551,-0.65 0.566,-0.631 0.576,-0.611C0.586,-0.591 0.591,-0.572 0.591,-0.553C0.591,-0.536 0.585,-0.52 0.573,-0.507C0.56,-0.493 0.545,-0.486 0.527,-0.486C0.51,-0.486 0.498,-0.49 0.489,-0.498C0.48,-0.507 0.471,-0.52 0.461,-0.539C0.448,-0.566 0.432,-0.587 0.414,-0.602C0.396,-0.617 0.367,-0.625 0.326,-0.625C0.289,-0.625 0.259,-0.617 0.236,-0.6C0.213,-0.584 0.201,-0.564 0.201,-0.541C0.201,-0.527 0.205,-0.514 0.213,-0.504C0.221,-0.493 0.231,-0.485 0.245,-0.477C0.259,-0.47 0.273,-0.464 0.287,-0.459C0.301,-0.455 0.324,-0.449 0.356,-0.441C0.396,-0.431 0.433,-0.421 0.466,-0.41C0.498,-0.398 0.526,-0.384 0.549,-0.368C0.572,-0.352 0.59,-0.331 0.603,-0.306C0.616,-0.281 0.622,-0.251 0.622,-0.215Z" style="fill-rule:nonzero;"/>
            </g>
        </g>
        <g transform="matrix(0.633635,0,0,0.633635,139.259,131.901)">
            <path d="M261.8,319.9C247.5,319.9 233.8,323.7 233.8,355.5L233.8,373.8C233.8,406.5 246,410.8 261.8,410.8C277.6,410.8 289.8,406.5 289.8,373.8L289.8,355.5C289.8,323.6 276,319.9 261.8,319.9ZM272.1,373.9C272.1,395.2 268.8,398.2 261.9,398.2C255,398.2 251.7,395.1 251.7,373.9L251.7,355.6C251.7,336.8 255,332.7 261.9,332.7C268.8,332.7 272.1,336.9 272.1,355.6L272.1,373.9Z" style="fill-rule:nonzero;"/>
        </g>
        <g transform="matrix(0.633635,0,0,0.633635,139.259,131.901)">
            <path d="M367.9,330.6L367.9,400.1C367.9,406.2 370.9,408.8 377.1,408.8L411.1,408.8C417.5,408.8 420,405.6 420,401.6C420,397.7 417.5,394.4 411.1,394.4L385,394.4L385,370.9L408.7,370.9C415.1,370.9 417.6,367.6 417.6,363.6C417.6,359.7 415.1,356.4 408.7,356.4L385,356.4L385,336.4L410.3,336.4C416.7,336.4 419.2,333.1 419.2,329.1C419.2,325.2 416.6,321.9 410.3,321.9L377.1,321.9C370.8,321.9 367.9,324.6 367.9,330.6Z" style="fill-rule:nonzero;"/>
        </g>
        <g transform="matrix(0.633635,0,0,0.633635,139.259,131.901)">
            <path d="M457.6,410.8C473.4,410.8 485.6,406.5 485.6,373.8L485.6,355.5C485.6,323.6 471.8,319.9 457.6,319.9C443.3,319.9 429.6,323.7 429.6,355.5L429.6,373.8C429.6,406.5 441.8,410.8 457.6,410.8ZM447.4,355.6C447.4,336.8 450.7,332.7 457.6,332.7C464.5,332.7 467.8,336.9 467.8,355.6L467.8,373.9C467.8,395.2 464.5,398.2 457.6,398.2C450.7,398.2 447.4,395.1 447.4,373.9L447.4,355.6Z" style="fill-rule:nonzero;"/>
        </g>
        <g transform="matrix(0.633635,0,0,0.633635,139.259,131.901)">
            <path d="M339.5,403.9C341.6,409.6 345.5,410.9 349.6,409.5C353.7,408.2 356.1,404.9 353.9,399.1L341.9,366.1C343.2,365.3 345.4,363.8 346,363.6C347.1,362.9 348.2,362 349.3,361.1C353.3,357.8 355.1,352.8 355.1,344.5C355.1,332.2 349.9,322.2 334.5,322.2L311,322.2C304.8,322.2 301.8,324.8 301.8,330.9L301.8,402C302.1,406.5 305.8,410 310.3,410C314.8,410 318.5,406.5 318.8,402L318.8,370.9L327.4,370.9L339.5,403.9ZM325.6,358.9L319.1,358.9L319.1,334.3L326.5,334.3C334.6,334.3 337.4,337.9 337.4,346.6C337.4,356 332.5,358.8 325.6,358.9Z" style="fill-rule:nonzero;"/>
        </g>
        <path d="M389.8,669C390.1,666 388.5,663 385.8,661.6C383.1,660.2 379.8,660.4 377.4,662.2C375,664 373.8,667.2 374.5,670.1L376.1,692.5C376.1,697.1 379.7,700.8 384.3,700.9C388.8,700.2 391.9,696 391.4,691.4L389.8,669Z" style="fill-rule:nonzero;"/>
        <path d="M411.1,666.3C411.1,663.3 409.4,660.5 406.6,659.2C403.8,657.9 400.6,658.4 398.3,660.4C396,662.4 395.1,665.6 395.9,668.5L399.2,690.7C399.5,695.2 403.4,698.7 408,698.5C412.4,697.4 415.2,693 414.4,688.5L411.1,666.3Z" style="fill-rule:nonzero;"/>
        <path d="M432.5,662C432.3,659 430.3,656.3 427.5,655.3C424.7,654.2 421.4,654.9 419.3,657.1C417.2,659.3 416.5,662.5 417.6,665.3L422.3,687.2C422.9,691.7 427,694.9 431.6,694.4C435.9,693 438.4,688.4 437.2,683.9L432.5,662Z" style="fill-rule:nonzero;"/>
        <path d="M453.4,656.2C453,653.2 450.9,650.6 448,649.7C445.1,648.8 441.9,649.7 439.9,652C437.9,654.3 437.4,657.6 438.7,660.4L444.9,682C445.8,686.5 450.2,689.4 454.7,688.5C459,686.9 461.2,682.2 459.6,677.8L453.4,656.2Z" style="fill-rule:nonzero;"/>
        <path d="M473.8,648.9C473.2,645.9 470.9,643.5 467.9,642.8C464.9,642.1 461.8,643.2 460,645.7C458.2,648.1 457.9,651.4 459.4,654.1L467.1,675.2C468.3,679.6 472.9,682.2 477.3,681C481.5,679.1 483.3,674.2 481.5,670L473.8,648.9Z" style="fill-rule:nonzero;"/>
        <path d="M502.9,660.9L493.8,640.4C493,637.4 490.6,635.2 487.5,634.7C484.5,634.2 481.4,635.6 479.8,638.2C478.1,640.8 478.2,644.1 479.8,646.7L488.9,667.2C490.5,671.5 495.1,673.7 499.5,672.3C503.5,670.1 504.9,665.1 502.8,661.1L502.9,660.9Z" style="fill-rule:nonzero;"/>
        <path d="M513,630.6C512,627.7 509.4,625.7 506.4,625.5C503.4,625.2 500.5,626.8 499,629.4C497.5,632.1 497.7,635.3 499.5,637.8L510.1,657.6C512,661.8 516.8,663.7 521,661.9C524.7,659.4 525.9,654.3 523.5,650.4L513,630.6Z" style="fill-rule:nonzero;"/>
        <path d="M543.4,638.2L531.5,619.1C530.2,616.4 527.5,614.6 524.5,614.6C521.5,614.6 518.8,616.3 517.5,619C516.2,621.7 516.5,624.9 518.4,627.2L530.3,646.2C532.4,650.2 537.4,651.8 541.5,649.7C545.2,647 545.9,641.8 543.4,638.2Z" style="fill-rule:nonzero;"/>
        <path d="M549.2,606.5C547.8,603.8 544.9,602.1 541.9,602.3C538.8,602.5 536.2,604.4 535.1,607.3C534,610.2 534.7,613.4 536.8,615.6L549.9,633.8C552.3,637.7 557.4,638.9 561.3,636.5C564.8,633.5 565.2,628.3 562.3,624.7L549.2,606.5Z" style="fill-rule:nonzero;"/>
        <path d="M566,592.8C564.4,590.2 561.5,588.7 558.4,589.1C555.4,589.5 552.8,591.6 551.9,594.5C551,597.4 551.9,600.6 554.2,602.6L568.6,619.8C571.3,623.5 576.4,624.4 580.1,621.8C583.4,618.5 583.4,613.3 580.3,610L566,592.8Z" style="fill-rule:nonzero;"/>
        <path d="M581.6,578C579.8,575.5 576.8,574.3 573.8,574.9C570.8,575.5 568.5,577.8 567.8,580.7C567.1,583.7 568.2,586.8 570.6,588.6L586.2,604.6C589.1,608.1 594.3,608.6 597.8,605.7C600.9,602.4 600.5,597.1 597.2,594.1L581.6,578Z" style="fill-rule:nonzero;"/>
        <path d="M613,577L596.3,562C594.4,559.6 591.2,558.6 588.3,559.4C585.3,560.2 583.1,562.7 582.7,565.7C582.2,568.7 583.6,571.7 586.1,573.4L602.8,588.4C606,591.7 611.2,591.8 614.5,588.7C617.2,585 616.5,579.8 613,577Z" style="fill-rule:nonzero;"/>
        <path d="M627.5,558.9L609.8,545.1C607.7,542.9 604.5,542.1 601.6,543.1C598.7,544.1 596.7,546.7 596.4,549.8C596.1,552.8 597.7,555.8 600.4,557.2L618.1,571C621.5,574 626.7,573.8 629.8,570.5C632.3,566.6 631.2,561.5 627.5,558.9Z" style="fill-rule:nonzero;"/>
        <path d="M640.7,539.7L622.1,527.1C619.9,525.1 616.6,524.5 613.8,525.7C611,526.9 609.2,529.6 609.1,532.7C609,535.7 610.8,538.5 613.5,539.8L632.1,552.3C635.7,555.1 640.9,554.5 643.8,551C646,547.1 644.7,542.1 640.7,539.7Z" style="fill-rule:nonzero;"/>
        <path d="M652.6,519.7L633.2,508.5C630.8,506.6 627.5,506.2 624.8,507.6C622.1,509 620.4,511.8 620.6,514.9C620.8,518 622.7,520.6 625.5,521.7L644.9,532.9C648.7,535.5 653.8,534.5 656.4,530.8C658.4,526.6 656.7,521.7 652.6,519.7Z" style="fill-rule:nonzero;"/>
        <path d="M663,499L642.8,489.2C640.3,487.5 637,487.3 634.4,488.9C631.8,490.5 630.3,493.4 630.7,496.5C631.1,499.5 633.2,502.1 636.1,503L656.3,512.8C660.2,515.1 665.3,513.8 667.6,509.9C669.3,505.6 667.2,500.8 663,499Z" style="fill-rule:nonzero;"/>
        <path d="M672,477.5L651.2,469.1C648.6,467.5 645.3,467.6 642.8,469.4C640.3,471.2 639.1,474.2 639.6,477.2C640.2,480.2 642.5,482.6 645.4,483.3L666.2,491.7C670.3,493.7 675.3,492.1 677.3,488C678.7,483.7 676.3,479 672,477.5Z" style="fill-rule:nonzero;"/>
        <path d="M679.4,455.5L658.1,448.5C655.4,447.2 652.1,447.5 649.8,449.4C647.4,451.3 646.4,454.4 647.2,457.4C648,460.3 650.4,462.6 653.4,463.1L674.7,470C678.9,471.7 683.8,469.7 685.6,465.6C686.5,461.2 683.8,456.7 679.4,455.5Z" style="fill-rule:nonzero;"/>
        <path d="M685.3,433.1L663.5,427.6C660.7,426.4 657.4,427 655.2,429C653,431.1 652.2,434.3 653.2,437.2C654.2,440.1 656.8,442.1 659.9,442.4L681.7,447.8C686,449.2 690.7,446.9 692.2,442.6C692.8,438.1 689.8,433.9 685.3,433.1Z" style="fill-rule:nonzero;"/>
        <path d="M689.6,410.2L667.5,406.3C664.6,405.3 661.4,406.1 659.3,408.3C657.2,410.5 656.6,413.8 657.8,416.6C659,419.4 661.7,421.3 664.8,421.3L686.9,425.2C691.3,426.3 695.8,423.7 697,419.3C697.5,414.8 694.2,410.8 689.6,410.2Z" style="fill-rule:nonzero;"/>
        <path d="M692.4,387.3L692.3,387.1L670,384.7C667,383.9 663.9,384.9 661.9,387.3C660,389.7 659.6,393 661,395.7C662.4,398.4 665.3,400.1 668.4,399.9L690.7,402.3C695.2,403.2 699.6,400.3 700.5,395.8C700.6,391.2 697,387.4 692.4,387.3Z" style="fill-rule:nonzero;"/>
        <path d="M693.4,363.9L671,363.1C668,362.5 664.9,363.8 663.2,366.3C661.4,368.8 661.3,372.1 662.9,374.7C664.5,377.3 667.4,378.8 670.5,378.4L692.9,379.2C697.4,379.7 701.5,376.5 702.1,371.9C701.8,367.4 698,363.8 693.4,363.9Z" style="fill-rule:nonzero;"/>
        <path d="M692.8,340.7L670.4,341.5C667.4,341.1 664.4,342.6 662.8,345.2C661.2,347.8 661.4,351.1 663.1,353.6C664.9,356.1 667.9,357.3 670.9,356.8L693.3,356C697.9,356.2 701.7,352.6 702,348.1C701.5,343.6 697.4,340.3 692.8,340.7Z" style="fill-rule:nonzero;"/>
        <path d="M690.6,317.7L690.7,317.5L668.4,319.9C665.4,319.8 662.5,321.4 661.1,324.1C659.7,326.8 660.1,330.1 662,332.5C663.9,334.9 667,335.9 670,335.1L692.3,332.7C696.8,332.5 700.4,328.8 700.4,324.2C699.5,319.7 695.1,316.8 690.6,317.7Z" style="fill-rule:nonzero;"/>
        <path d="M686.9,294.6L664.8,298.5C661.7,298.5 659,300.4 657.8,303.2C656.6,306 657.2,309.3 659.3,311.5C661.4,313.7 664.6,314.5 667.5,313.5L689.6,309.6C694.1,309.2 697.5,305.2 697.1,300.6C695.9,296.3 691.4,293.6 686.9,294.6Z" style="fill-rule:nonzero;"/>
        <path d="M681.6,272L659.8,277.4C656.8,277.7 654.1,279.7 653.2,282.6C652.3,285.5 653,288.7 655.3,290.8C657.5,292.9 660.8,293.5 663.6,292.2L685.4,286.8C689.9,286 692.9,281.8 692.2,277.3C690.7,273 686,270.7 681.6,272Z" style="fill-rule:nonzero;"/>
        <path d="M674.7,249.8L653.4,256.8C650.3,257.2 647.8,259.4 647,262.4C646.2,265.4 647.2,268.6 649.7,270.5C652.1,272.4 655.5,272.7 658.2,271.2L679.5,264.3C683.8,263.2 686.6,258.9 685.6,254.5C683.8,250.3 679,248.3 674.7,250L674.7,249.8Z" style="fill-rule:nonzero;"/>
        <path d="M645.4,236.6C642.4,237.3 640.1,239.7 639.6,242.7C639,245.7 640.3,248.8 642.8,250.5C645.3,252.3 648.6,252.4 651.2,250.8L672,242.4C676.3,241 678.7,236.4 677.5,232.1C675.3,228 670.4,226.3 666.2,228.2L645.4,236.6Z" style="fill-rule:nonzero;"/>
        <path d="M636.1,217C633.2,217.9 631.1,220.4 630.7,223.5C630.3,226.6 631.8,229.5 634.4,231.1C637,232.7 640.3,232.6 642.8,230.8L663,221C667.2,219.3 669.3,214.5 667.7,210.2C665.3,206.3 660.2,205 656.3,207.2L636.1,217Z" style="fill-rule:nonzero;"/>
        <path d="M625.5,198.1C622.7,199.2 620.7,201.9 620.6,204.9C620.5,207.9 622.1,210.8 624.8,212.2C627.5,213.6 630.8,213.3 633.2,211.4L652.6,200.2C656.7,198.2 658.5,193.3 656.6,189.2C653.9,185.4 648.8,184.4 644.9,186.9L625.5,198.1Z" style="fill-rule:nonzero;"/>
        <path d="M609.4,187.2C609.5,190.2 611.3,192.9 614,194.1C616.7,195.3 619.9,194.8 622.2,192.9L640.8,180.3C644.8,178.1 646.2,173 644.1,169C641.2,165.4 636,164.8 632.4,167.7L632.2,167.5L613.6,180.1C610.9,181.5 609.3,184.2 609.4,187.2Z" style="fill-rule:nonzero;"/>
        <path d="M596.5,170.2C596.7,173.2 598.8,175.9 601.7,176.9C604.6,177.9 607.8,177.1 609.9,174.9L627.6,161.1C631.4,158.5 632.4,153.5 630,149.6C626.9,146.3 621.6,146 618.2,149L600.5,162.8C597.8,164.3 596.3,167.2 596.5,170.2Z" style="fill-rule:nonzero;"/>
        <path d="M582.6,154.3C583.1,157.3 585.3,159.8 588.2,160.6C591.2,161.4 594.3,160.4 596.2,158L612.9,143C616.5,140.2 617.2,135 614.4,131.4C611.1,128.2 605.9,128.4 602.7,131.6L586,146.6C583.4,148.3 582.1,151.3 582.6,154.3Z" style="fill-rule:nonzero;"/>
        <path d="M567.7,139.2C568.4,142.1 570.8,144.5 573.8,145.1C576.8,145.7 579.9,144.4 581.6,141.9L597.2,125.8C600.6,122.7 600.9,117.6 598,114.1C594.4,111.3 589.2,111.8 586.2,115.2L570.6,131.3C568.2,133.1 567,136.3 567.7,139.2Z" style="fill-rule:nonzero;"/>
        <path d="M551.8,125.4C552.7,128.3 555.2,130.5 558.3,130.9C561.4,131.3 564.4,129.8 565.9,127.1L580.3,109.9C583.5,106.7 583.5,101.4 580.3,98.2C576.5,95.6 571.3,96.4 568.6,100.1L554.2,117.3C551.8,119.3 550.9,122.5 551.8,125.4Z" style="fill-rule:nonzero;"/>
        <path d="M535.2,112.6C536.3,115.5 539,117.4 542,117.6C545.1,117.8 547.9,116.1 549.3,113.4L562.4,95.3C565.3,91.8 564.9,86.6 561.5,83.6C557.6,81.2 552.5,82.4 550,86.2L536.9,104.3C534.7,106.5 534.1,109.7 535.2,112.6Z" style="fill-rule:nonzero;"/>
        <path d="M517.6,100.9C518.9,103.6 521.6,105.3 524.6,105.3C527.6,105.3 530.3,103.5 531.6,100.8L543.4,81.7C546.1,78 545.3,72.9 541.7,70.1C537.6,68 532.6,69.6 530.4,73.7L518.5,92.7C516.6,95 516.3,98.2 517.6,100.9Z" style="fill-rule:nonzero;"/>
        <path d="M498.9,90.7C500.4,93.4 503.3,94.9 506.3,94.6C509.3,94.3 511.9,92.3 512.9,89.5L523.4,69.7C525.8,65.8 524.7,60.8 520.9,58.3C516.8,56.5 511.9,58.4 510,62.5L499.4,82.3C497.6,84.7 497.4,88 498.9,90.7Z" style="fill-rule:nonzero;"/>
        <path d="M479.7,81.7C481.4,84.3 484.4,85.6 487.4,85.1C490.4,84.6 492.9,82.4 493.7,79.5L502.8,59C504.9,55 503.5,50 499.5,47.8C495.3,46.3 490.6,48.5 488.9,52.8L479.7,73.3C478,75.9 478,79.2 479.7,81.7Z" style="fill-rule:nonzero;"/>
        <path d="M460.1,74.1C461.9,76.5 465,77.7 468,77C471,76.3 473.3,73.9 473.9,70.9L481.6,49.8C483.4,45.6 481.6,40.8 477.5,38.8C473,37.7 468.5,40.2 467.2,44.6L459.5,65.7C458,68.4 458.3,71.7 460.1,74.1Z" style="fill-rule:nonzero;"/>
        <path d="M448.1,70.2C451,69.3 453.2,66.8 453.5,63.7L459.7,42.1C461.2,37.8 459.1,33 454.8,31.4C450.3,30.6 445.9,33.5 445,37.9L438.8,59.5C437.5,62.3 438,65.5 440,67.9C442,70.2 445.2,71.1 448.1,70.2Z" style="fill-rule:nonzero;"/>
        <path d="M427.3,64.7C430.2,63.6 432.1,61 432.3,58L437,36C438.3,31.6 435.8,27.1 431.4,25.7C427.1,25 422.8,28.1 422.1,32.7L417.4,54.7C416.3,57.5 417,60.8 419.1,62.9C421.2,65 424.5,65.8 427.3,64.7Z" style="fill-rule:nonzero;"/>
        <path d="M406.7,61C409.5,59.7 411.2,56.9 411.1,53.8L414.4,31.6C415.3,27.2 412.5,22.8 408.1,21.8C403.6,21.5 399.6,24.9 399.3,29.4L396,51.6C395.1,54.5 396,57.7 398.3,59.8C400.6,61.8 403.9,62.3 406.7,61Z" style="fill-rule:nonzero;"/>
        <path d="M377.4,57.6C379.8,59.4 383.1,59.6 385.8,58.2C388.5,56.8 390,53.9 389.8,50.8L391.4,28.4C392,23.9 389,19.7 384.5,19C379.9,19.1 376.2,22.9 376.1,27.4L374.5,49.8C373.9,52.8 375,55.8 377.4,57.6Z" style="fill-rule:nonzero;"/>
        <path d="M356.3,57.3C358.9,58.9 362.1,58.9 364.7,57.3C367.3,55.7 368.6,52.7 368.2,49.7L368.2,27.2C368.5,22.7 365.1,18.7 360.6,18.3C356,18.6 352.6,22.6 352.8,27.2L352.8,49.7C352.4,52.7 353.7,55.7 356.3,57.3Z" style="fill-rule:nonzero;"/>
        <path d="M331.2,50.9C330.9,53.9 332.5,56.9 335.1,58.4C337.8,59.9 341.1,59.7 343.5,57.8C345.9,56 347.1,52.9 346.4,49.9L344.8,27.5C344.8,22.9 341.2,19.2 336.6,19.1C332.2,19.8 329.1,24 329.6,28.5L331.2,50.9Z" style="fill-rule:nonzero;"/>
        <path d="M309.9,53.7C309.9,56.7 311.6,59.5 314.4,60.8C317.2,62.1 320.4,61.6 322.7,59.6C325,57.6 325.9,54.4 325,51.5L321.7,29.4C321.4,24.9 317.5,21.4 312.9,21.6C308.6,22.6 305.8,27 306.6,31.4L309.9,53.7Z" style="fill-rule:nonzero;"/>
        <path d="M288.5,58C288.7,61 290.7,63.7 293.5,64.7C296.3,65.8 299.6,65.1 301.7,62.9C303.8,60.7 304.5,57.5 303.4,54.7L298.7,32.7C298.1,28.2 293.9,25 289.4,25.5C285.1,26.8 282.5,31.5 283.8,36L288.5,58Z" style="fill-rule:nonzero;"/>
        <path d="M267.6,63.7C268,66.7 270.1,69.3 273,70.2C275.9,71.1 279.1,70.2 281.1,67.9C283.1,65.6 283.6,62.3 282.3,59.5L276.1,37.9C275.2,33.4 270.8,30.5 266.3,31.4C262.1,33 259.9,37.8 261.4,42.1L267.6,63.7Z" style="fill-rule:nonzero;"/>
        <path d="M247.1,70.9C247.7,73.9 250,76.3 253,77C256,77.7 259.1,76.6 260.9,74.1C262.7,71.7 263,68.4 261.5,65.7L253.8,44.6C252.5,40.2 248,37.6 243.6,38.8C239.5,40.7 237.7,45.6 239.5,49.8L247.1,70.9Z" style="fill-rule:nonzero;"/>
        <path d="M218.2,59L227.3,79.5C228.1,82.5 230.5,84.7 233.6,85.1C236.6,85.6 239.6,84.2 241.3,81.7C243,79.1 243,75.8 241.3,73.3L232.1,52.8C230.5,48.5 225.9,46.3 221.5,47.7C217.5,49.9 216.1,54.9 218.2,59Z" style="fill-rule:nonzero;"/>
        <path d="M208,89.5C209,92.4 211.6,94.4 214.6,94.6C217.6,94.8 220.5,93.3 222,90.7C223.5,88 223.3,84.8 221.5,82.3L211,62.6C209.1,58.4 204.3,56.5 200.1,58.3C196.2,60.7 195.1,65.8 197.5,69.7L208,89.5Z" style="fill-rule:nonzero;"/>
        <path d="M189.6,100.8C190.9,103.5 193.6,105.2 196.6,105.2C199.6,105.2 202.3,103.5 203.6,100.9C204.9,98.2 204.6,95.1 202.7,92.7L190.8,73.7C188.7,69.7 183.7,68.1 179.7,70.1C175.8,72.7 175,78 177.7,81.7L189.6,100.8Z" style="fill-rule:nonzero;"/>
        <path d="M171.8,113.4C173.2,116.1 176.1,117.7 179.1,117.5C182.1,117.3 184.8,115.4 185.9,112.6C187,109.8 186.3,106.5 184.2,104.4L171.1,86.3C168.7,82.4 163.6,81.2 159.7,83.5C156.3,86.5 155.8,91.7 158.7,95.2L171.8,113.4Z" style="fill-rule:nonzero;"/>
        <path d="M140.7,109.9L155.1,127.1C156.7,129.8 159.6,131.3 162.7,130.9C165.8,130.5 168.3,128.4 169.2,125.4C170.1,122.4 169.1,119.2 166.8,117.3L152.4,100.1C149.8,96.4 144.6,95.4 140.9,98C137.7,101.3 137.7,106.5 140.9,109.7L140.7,109.9Z" style="fill-rule:nonzero;"/>
        <path d="M139.4,142C141.2,144.5 144.2,145.7 147.2,145.1C150.2,144.5 152.5,142.2 153.2,139.3C153.9,136.4 152.8,133.2 150.4,131.4L134.8,115.3C131.9,111.8 126.7,111.3 123.1,114.1C120.1,117.5 120.5,122.8 123.8,125.9L139.4,142Z" style="fill-rule:nonzero;"/>
        <path d="M108,143L124.7,158C126.6,160.4 129.8,161.4 132.7,160.6C135.7,159.8 137.9,157.3 138.3,154.3C138.8,151.3 137.4,148.3 134.9,146.6L118.1,131.6C114.9,128.3 109.7,128.2 106.4,131.3C103.7,134.9 104.4,140.1 108,143Z" style="fill-rule:nonzero;"/>
        <path d="M93.5,161.1L111.2,174.9C113.3,177.1 116.5,177.9 119.4,176.9C122.3,175.9 124.3,173.3 124.6,170.2C124.9,167.2 123.3,164.2 120.6,162.8L103,149.1C99.6,146.1 94.4,146.3 91.3,149.6C88.8,153.4 89.8,158.5 93.5,161.1Z" style="fill-rule:nonzero;"/>
        <path d="M80.3,180.2L98.9,192.8C101.1,194.9 104.4,195.5 107.2,194.3C110,193.1 111.9,190.4 111.9,187.3C112,184.2 110.2,181.4 107.4,180.1L88.7,167.5C85.1,164.7 80,165.3 77.1,168.8C74.9,172.9 76.4,177.9 80.3,180.2Z" style="fill-rule:nonzero;"/>
        <path d="M68.4,200.2L87.8,211.4C90.2,213.3 93.5,213.7 96.2,212.3C98.9,210.9 100.6,208 100.4,205C100.2,202 98.3,199.3 95.4,198.2L76,187C72.2,184.5 67.1,185.4 64.5,189.1C62.6,193.2 64.4,198.1 68.4,200.2Z" style="fill-rule:nonzero;"/>
        <path d="M58,220.9L78.2,230.7C80.7,232.4 84,232.5 86.6,231C89.2,229.4 90.7,226.5 90.3,223.4C89.9,220.4 87.8,217.8 84.9,216.9L64.7,207.1C60.8,204.8 55.7,206.1 53.4,210C51.7,214.4 53.8,219.2 58,220.9Z" style="fill-rule:nonzero;"/>
        <path d="M49.1,242.4L69.9,250.8C72.5,252.3 75.8,252.2 78.3,250.5C80.8,248.8 82,245.7 81.5,242.7C80.9,239.7 78.7,237.3 75.8,236.6L54.9,228.2C50.8,226.2 45.8,227.9 43.8,232C42.3,236.4 44.7,241.1 49.1,242.4Z" style="fill-rule:nonzero;"/>
        <path d="M41.6,264.4L62.9,271.3C65.6,272.7 68.9,272.4 71.3,270.4C73.7,268.5 74.7,265.3 73.9,262.4C73.1,259.5 70.6,257.2 67.6,256.8L46.2,249.9C42,248.2 37.1,250.2 35.3,254.3C34.4,258.8 37.1,263.2 41.6,264.4Z" style="fill-rule:nonzero;"/>
        <path d="M35.7,286.9L57.5,292.3C60.3,293.5 63.6,292.9 65.8,290.9C68,288.9 68.8,285.6 67.8,282.7C66.8,279.8 64.2,277.8 61.1,277.5L39.3,272.1C35,270.7 30.3,273 28.8,277.3C28.2,281.8 31.2,286.1 35.7,286.9Z" style="fill-rule:nonzero;"/>
        <path d="M31.4,309.7L53.5,313.8C56.3,314.5 59.3,313.6 61.2,311.4C63.1,309.2 63.6,306.1 62.6,303.4C61.6,300.7 59,298.8 56.1,298.6L34,294.6C29.6,293.5 25.1,296.2 24,300.6C23.5,305.2 26.9,309.3 31.4,309.7Z" style="fill-rule:nonzero;"/>
        <path d="M28.7,332.8L51,335.2C53.9,336 57.1,334.9 59,332.6C60.9,330.3 61.3,327 59.9,324.2C58.5,321.5 55.7,319.8 52.6,320L30.3,317.7C25.8,316.8 21.4,319.7 20.5,324.2C20.5,328.7 24.1,332.5 28.7,332.8Z" style="fill-rule:nonzero;"/>
        <path d="M27.6,356L50,356.8C53,357.4 56.1,356.1 57.8,353.6C59.6,351.1 59.7,347.8 58.1,345.2C56.5,342.6 53.6,341.1 50.5,341.5L28.1,340.7C23.6,340.2 19.5,343.4 18.9,348C19.2,352.5 23.1,356.1 27.6,356Z" style="fill-rule:nonzero;"/>
        <path d="M28.2,379.1L50.6,378.3C53.6,378.7 56.6,377.2 58.2,374.6C59.8,372 59.6,368.7 57.9,366.2C56.1,363.7 53.1,362.5 50.1,363L27.7,363.8C23.2,363.6 19.3,367.1 19,371.7C19.5,376.3 23.6,379.6 28.2,379.1Z" style="fill-rule:nonzero;"/>
        <path d="M30.4,402L30.3,402.4L52.6,400C55.6,400.1 58.5,398.5 59.9,395.8C61.3,393.1 60.9,389.8 59,387.4C57.1,385 54,384 51,384.8L28.7,387.2C24.2,387.4 20.6,391 20.6,395.5C21.5,400 25.9,402.9 30.4,402Z" style="fill-rule:nonzero;"/>
        <path d="M34.1,425.3L56.1,421.4C59.1,421.3 61.8,419.5 63,416.7C64.2,413.9 63.6,410.7 61.6,408.4C59.5,406.2 56.4,405.3 53.5,406.3L31.4,410.2C26.9,410.7 23.6,414.7 23.9,419.2C25.1,423.7 29.6,426.4 34.1,425.3Z" style="fill-rule:nonzero;"/>
        <path d="M39.4,447.8L61.2,442.4C64.3,442.1 66.9,440.1 67.9,437.2C68.9,434.3 68.1,431.1 65.9,429C63.7,426.9 60.4,426.3 57.6,427.6L35.8,433C31.3,433.8 28.3,438 29,442.5C30.3,446.8 35,449.2 39.4,447.8Z" style="fill-rule:nonzero;"/>
        <path d="M67.6,463.2C70.6,462.7 73,460.5 73.8,457.6C74.6,454.7 73.6,451.5 71.2,449.6C68.8,447.7 65.6,447.3 62.8,448.7L41.5,455.7C37.2,456.8 34.4,461.1 35.4,465.5C36.2,467.6 37.8,469.2 39.8,470.1C41.9,470.9 44.2,470.9 46.3,470.1L67.6,463.2Z" style="fill-rule:nonzero;"/>
        <path d="M75.7,483.4C78.7,482.7 81,480.3 81.6,477.3C82.2,474.3 81,471.2 78.4,469.5C75.8,467.8 72.6,467.6 70,469.2L49.2,477.6C44.9,479 42.5,483.6 43.8,488C45.8,492 50.7,493.7 54.8,491.8L75.7,483.4Z" style="fill-rule:nonzero;"/>
        <path d="M84.9,502.9C87.9,502.1 90.1,499.6 90.6,496.5C91,493.4 89.6,490.4 86.9,488.8C84.2,487.2 80.9,487.3 78.4,489.2L58.2,499C56.1,499.8 54.4,501.4 53.5,503.4C52.6,505.4 52.5,507.8 53.4,509.9C55.7,513.8 60.7,515.1 64.7,512.7L84.9,502.9Z" style="fill-rule:nonzero;"/>
        <path d="M95.5,521.8C98.3,520.7 100.3,518 100.4,515C100.5,512 98.9,509.1 96.2,507.7C93.5,506.3 90.2,506.6 87.8,508.5L68.3,519.6C64.2,521.6 62.5,526.5 64.4,530.6C67,534.4 72.2,535.3 75.9,532.8L76.1,533L95.5,521.8Z" style="fill-rule:nonzero;"/>
        <path d="M111.9,532.5C111.8,529.4 110,526.7 107.2,525.5C104.4,524.3 101.1,524.9 98.9,527L80.3,539.6C76.3,541.8 74.9,546.8 77,550.8C78.4,552.6 80.4,553.7 82.6,554C84.8,554.3 87,553.7 88.8,552.3L107.4,539.7C110.2,538.4 111.9,535.6 111.9,532.5Z" style="fill-rule:nonzero;"/>
        <path d="M124.7,549.7C124.4,546.7 122.4,544 119.5,543C116.6,542 113.4,542.8 111.3,545L93.6,558.9C89.8,561.4 88.8,566.5 91.2,570.3C94.3,573.7 99.5,573.9 103,570.9L120.7,557.1C123.4,555.6 124.9,552.7 124.7,549.7Z" style="fill-rule:nonzero;"/>
        <path d="M138.6,565.5C138.2,562.4 135.9,559.9 132.8,559.1C129.8,558.3 126.5,559.5 124.7,562L108,577C104.4,579.8 103.7,585 106.4,588.6C109.8,591.7 115,591.6 118.2,588.3L134.9,573.3C137.6,571.7 139.1,568.6 138.6,565.5Z" style="fill-rule:nonzero;"/>
        <path d="M153.3,580.6C152.6,577.6 150.2,575.3 147.2,574.7C144.2,574.1 141.1,575.4 139.4,577.9L123.8,594C120.4,597 120.1,602.2 123,605.7C126.6,608.6 131.8,608.1 134.8,604.6L150.4,588.5C152.8,586.7 154,583.5 153.3,580.6Z" style="fill-rule:nonzero;"/>
        <path d="M169.1,594.5C168.2,591.6 165.7,589.4 162.6,589.1C159.6,588.7 156.6,590.2 155,592.8L140.7,610C137.5,613.2 137.5,618.5 140.7,621.7C144.4,624.3 149.6,623.5 152.3,619.8L152.4,619.8L166.8,602.6C169.1,600.6 170,597.4 169.1,594.5Z" style="fill-rule:nonzero;"/>
        <path d="M185.9,607.4C184.8,604.6 182.1,602.6 179.1,602.5C176.1,602.3 173.2,603.9 171.8,606.6L158.7,624.7C155.8,628.2 156.2,633.4 159.6,636.4C163.5,638.8 168.6,637.6 171.1,633.7L184.2,615.6C186.3,613.4 187,610.2 185.9,607.4Z" style="fill-rule:nonzero;"/>
        <path d="M203.4,619C202.1,616.3 199.4,614.6 196.4,614.6C193.4,614.6 190.7,616.4 189.4,619.1L177.5,638.2C174.8,641.9 175.6,647 179.2,649.8C183.3,651.9 188.3,650.3 190.4,646.3L190.6,646.3L202.5,627.2C204.4,624.9 204.7,621.7 203.4,619Z" style="fill-rule:nonzero;"/>
        <path d="M222.1,629.3C220.6,626.6 217.7,625.1 214.7,625.4C211.7,625.7 209.1,627.7 208.1,630.5L197.6,650.4C195.2,654.3 196.3,659.3 200.1,661.8C204.3,663.6 209.2,661.7 211,657.6L211,657.5L221.6,637.7C223.4,635.3 223.6,632 222.1,629.3Z" style="fill-rule:nonzero;"/>
        <path d="M241.2,638.3C239.6,635.8 236.5,634.4 233.5,634.9C230.5,635.4 228,637.6 227.2,640.5L218.1,661C216,665 217.4,670 221.4,672.2C225.7,673.7 230.4,671.5 232,667.2L232.1,667.2L241.2,646.7C242.8,644.1 242.8,640.8 241.2,638.3Z" style="fill-rule:nonzero;"/>
        <path d="M261,645.8C259.2,643.4 256.1,642.2 253.1,642.9C250.1,643.6 247.8,646 247.2,649L239.5,670C237.7,674.2 239.5,679 243.6,681C248,682.2 252.5,679.6 253.9,675.3L261.6,654.2C263.1,651.5 262.8,648.2 261,645.8Z" style="fill-rule:nonzero;"/>
        <path d="M273,649.7C270.1,650.6 267.9,653.1 267.6,656.2L261.5,677.8C259.9,682.1 262.1,686.8 266.3,688.5C270.8,689.4 275.2,686.4 276.1,682L282.3,660.4C283.6,657.6 283.1,654.4 281.1,652C279.1,649.7 275.9,648.8 273,649.7Z" style="fill-rule:nonzero;"/>
        <path d="M293.6,655.1C290.8,656.2 288.8,658.8 288.6,661.8L283.9,683.7C282.6,688.1 285.1,692.6 289.5,694C294,694.6 298.2,691.4 298.8,686.9L298.8,687.1L303.5,665.1C304.6,662.3 303.9,659 301.8,656.9C299.7,654.7 296.4,654 293.6,655.1Z" style="fill-rule:nonzero;"/>
        <path d="M322.7,660.3C320.4,658.3 317.1,657.8 314.4,659.1C311.7,660.4 309.9,663.2 309.9,666.2L306.8,688.4C305.9,692.8 308.7,697.2 313,698.2C317.6,698.6 321.5,695.1 321.8,690.6L325.1,668.4C326,665.5 325.1,662.3 322.7,660.3Z" style="fill-rule:nonzero;"/>
        <path d="M343.5,662.2C341.1,660.4 337.8,660.1 335.1,661.6C332.4,663.1 330.9,666 331.1,669L329.6,691.4C329,695.9 332,700.1 336.5,700.8C341.2,700.8 344.9,697.1 344.9,692.5L346.4,670.1C347.1,667.1 346,664 343.5,662.2Z" style="fill-rule:nonzero;"/>
        <path d="M364.8,662.8C362.2,661.1 358.9,661.1 356.4,662.8C353.8,664.5 352.5,667.5 353,670.5L353,692.9C352.7,697.4 356,701.4 360.6,701.8C365,701.4 368.4,697.4 368.2,692.9L368.2,670.5C368.7,667.5 367.3,664.4 364.8,662.8Z" style="fill-rule:nonzero;"/>
        <path d="M315.2,90.3C315.7,97 323.6,95.3 331.8,94.5C348,93 364.2,92.8 380.4,93.7C388.4,94.4 406.4,100.4 406.7,90.1C406.8,83.9 396,82.5 390.1,81.9C381.2,81.1 363.9,81.2 357.4,81.4C343.7,81.7 314.3,79.2 315.2,90.3Z" style="fill-rule:nonzero;"/>
        <path d="M431.9,88.9C424.3,87.8 421.2,91.8 422.1,96.7C424.3,108 442.8,97.7 431.9,88.9Z" style="fill-rule:nonzero;"/>
        <path d="M295.1,93.1C293.5,86.3 280,86.5 282.3,98.5C287.6,105.1 296.8,100.6 295.1,93.1Z" style="fill-rule:nonzero;"/>
        <path d="M522.9,130.9C510.5,122.8 497.6,115.4 484.3,108.8C478.5,105.8 467.6,97.7 461.4,100.5C458.5,101.6 456.7,104.6 457.2,107.5C458.2,113.9 469.9,115.1 476.1,118.1C492.4,126.2 508,135.7 522.6,146.7C524.1,147.9 527.3,153.1 532.1,152.5C535.1,151.7 537.3,149.2 537.8,146.2C538.4,140.7 530.2,135.9 522.9,130.9Z" style="fill-rule:nonzero;"/>
        <path d="M198.2,128.9C193.2,132.3 182.8,138.8 183.6,144.6C185.1,153.9 194.4,148.1 198.8,144.8C213.5,133.7 229.4,124.3 246.2,116.9C253.9,113.5 272.3,107.6 260.8,98C260.3,98 254.9,98.1 255.3,97.9C238,106.5 215.9,116.7 198.2,128.9Z" style="fill-rule:nonzero;"/>
        <path d="M158.7,154.8C154.4,159.1 156.1,166.5 160.9,167.6C171.3,169.7 171.8,150.6 158.7,154.8Z" style="fill-rule:nonzero;"/>
        <path d="M556.7,161C554.8,159.9 552.4,159.8 550.4,160.8C548.8,161.3 547.4,162.4 546.6,163.9C545.8,165.4 545.7,167.1 546.3,168.7C547.9,175.6 559.9,174.8 559.9,166.5C559.8,164.2 558.6,162.2 556.7,161Z" style="fill-rule:nonzero;"/>
        <path d="M594.5,199.7C591,194.7 583.8,183.6 581.2,182.8C579,182.3 576.8,182.5 574.8,183.5C568.1,187.1 573.3,194 576.9,198.6C588.2,212.6 597.6,228 604.9,244.4C608.2,251.7 609.8,262 615.8,262.9C626.4,264.5 623.6,254.4 620.8,247.9C613.7,231 604.8,214.9 594.5,199.7Z" style="fill-rule:nonzero;"/>
        <path d="M146.1,181.2C144,180.6 141.8,181 140.1,182.3C128.4,194.3 115.1,216.7 105.7,235.2C102,242.3 91.7,260.6 103.7,261.3C111.8,261.8 112.7,249.9 116,243.2C124,226.6 133.9,211 145.5,196.5C147.4,194 151.3,189.7 150.4,185.5C149.7,183.5 148.2,181.9 146.1,181.2Z" style="fill-rule:nonzero;"/>
        <path d="M616.9,286.1C618.2,293.7 632.4,292.9 630.5,283.1C629.7,279 625.6,277 621,279C618,279.9 616.2,283 616.9,286.1Z" style="fill-rule:nonzero;"/>
        <path d="M96.8,278.9C95.3,277.8 93.4,277.4 91.6,277.8C81.8,279.9 87.2,292.2 93.7,291.3C97.2,290.3 99.5,287.1 99.4,283.5C99.2,281.7 98.3,280 96.8,278.9Z" style="fill-rule:nonzero;"/>
        <path d="M643.2,389.9C644.5,374 644.7,358 644,342.1C643.6,335.8 642.9,320.2 639.6,317.4C635.2,313.6 630.6,317.9 628.4,321.2C631.4,342.8 632.1,364.7 630.5,386.5C629.8,393.7 625.2,407.3 635,407.3C640.3,407.2 642.4,398.7 643.2,389.9Z" style="fill-rule:nonzero;"/>
        <path d="M82.4,312.8C78.3,316 77.7,331.8 77.2,339.8C76.8,345.7 76.5,355.9 76.8,365.3C77.2,378 76.5,405.6 88.2,402.1C95.2,399.9 90.5,386.2 90.1,380.6C89.1,362.5 89.4,344.4 90.9,326.4C91.3,322.7 94.4,316.5 91.1,312.9L91.2,312.8C89.5,311.3 83.9,310.2 82.4,312.8Z" style="fill-rule:nonzero;"/>
        <path d="M633,433.6C634.7,430 634.1,424.3 631.6,422.4C624.3,421.2 620.4,423.8 621.1,431.1C623.7,435 629,436.1 633,433.6Z" style="fill-rule:nonzero;"/>
        <path d="M86.8,433.9C94.7,434.9 97.8,419.1 87,421.2C78,423 82.1,433.3 86.8,433.9Z" style="fill-rule:nonzero;"/>
        <path d="M578.1,537.6C585.7,540.2 590.9,528.4 594.2,523.5C603.1,511.3 611,498.4 617.9,484.9C621.6,477.5 635,452.9 616.7,458.8C611.9,462.5 610.5,471.1 606.9,478.4C600.5,491 593.1,503.2 584.8,514.7C582.1,518.5 572.7,528.2 574.2,533.6C575.2,535.2 576.5,536.6 578.1,537.6Z" style="fill-rule:nonzero;"/>
        <path d="M123,519C124.8,521.8 130.9,536.9 139.3,534.4C147.7,531.9 141.2,523.5 138.7,520C128.1,505.4 119,489.8 111.6,473.4C107.8,464.7 101.6,446.5 92,457.1C92.2,466.4 96.4,473.6 99.7,480.4C106.4,493.9 114.2,506.8 123,519Z" style="fill-rule:nonzero;"/>
        <path d="M564.2,561.5C571.7,560.7 571.4,545.4 561.2,548.7C552.8,551.5 556.6,562.2 564.2,561.5Z" style="fill-rule:nonzero;"/>
        <path d="M150.2,558.3C156.1,567.9 169.4,555 160,548.9C152.4,547.7 149.5,551.2 150.2,558.3Z" style="fill-rule:nonzero;"/>
        <path d="M478.1,614.4C492.4,607.7 506.1,599.9 519.1,591C524,587.7 536.6,581.3 536.1,575.3C535.9,573.3 530.2,567 526.6,569.6C513.1,579.2 492.1,594.5 472,603C463.1,606.7 451.2,609.5 455.8,618.7L455.7,618.8C463.2,624.6 471.6,617.7 478.1,614.4Z" style="fill-rule:nonzero;"/>
        <path d="M195.1,593.8C208.4,602.8 222.4,610.8 236.9,617.6C243,620.5 256.5,628.1 259.1,620.3C261.7,612.5 249.7,609.5 243.4,606.6C235,602.8 228.5,600.1 222.8,596.8C207,588.1 197.2,578.1 185.8,572.4L186.1,572.2C184.2,571.8 182.4,572.3 180.9,573.5C179.4,574.7 178.7,576.5 178.8,578.4C178.4,584.6 189.8,590.2 195.1,593.8Z" style="fill-rule:nonzero;"/>
        <path d="M427.1,625.5C428.7,635.9 447.3,629 438.3,618.5C431.2,615.2 426.3,620.8 427.1,625.5Z" style="fill-rule:nonzero;"/>
        <path d="M275.7,626.3C276.7,637.8 297.2,629.3 286.2,619.3C279,618.3 275.4,621.8 275.7,626.3Z" style="fill-rule:nonzero;"/>
        <path d="M405.5,630.7C406.2,623.3 401.2,624.4 396.8,624.2L396.8,624.1L395.3,624.1C382.1,623.9 359.6,626.9 341.9,625.7C333,625.1 312.3,618.4 314.7,630.9C316.4,638.8 331.8,637 342.5,637.7C356.3,638.7 370.1,639 383.9,638.4C392.3,637.8 404.8,637.2 405.5,630.7Z" style="fill-rule:nonzero;"/>
        <path d="M252.6,160.7C250.9,159.9 249,159.7 247.2,160.4C245.4,161.1 243.9,162.3 243.1,164C241.4,167.5 242.9,171.7 246.4,173.4C249.9,175.1 254.1,173.6 255.8,170.1C257.5,166.6 256.1,162.4 252.6,160.7Z" style="fill-rule:nonzero;"/>
        <path d="M164.8,246.1C162.9,246.7 161.5,248 160.7,249.7C159,253.2 160.5,257.4 164,259.1C167.5,260.8 171.7,259.3 173.4,255.8C175.1,252.3 173.7,248.1 170.2,246.4C168.5,245.6 166.6,245.4 164.8,246.1Z" style="fill-rule:nonzero;"/>
        <path d="M135.4,360.5C133.5,361 132.1,362.3 131.3,364C129.6,367.5 131.1,371.7 134.6,373.4C138.1,375.1 142.3,373.6 144,370.2C145.7,366.7 144.3,362.5 140.8,360.8C139.1,360 137.2,359.8 135.4,360.5Z" style="fill-rule:nonzero;"/>
        <path d="M177.8,465.6C176.1,464.8 174.2,464.6 172.4,465.3C170.6,465.9 169.1,467.2 168.3,468.9C166.6,472.4 168.1,476.6 171.6,478.3C175.1,480 179.3,478.5 181,475C182.7,471.5 181.3,467.3 177.8,465.6Z" style="fill-rule:nonzero;"/>
        <path d="M261.2,554.4C262.9,551 261.5,546.7 258,545C256.3,544.2 254.4,544 252.6,544.7C250.8,545.4 249.3,546.5 248.5,548.2C246.8,551.7 248.3,555.9 251.8,557.6C255.3,559.3 259.5,557.8 261.2,554.4Z" style="fill-rule:nonzero;"/>
        <path d="M367,577.5C365.3,576.7 363.4,576.5 361.6,577.1C359.8,577.7 358.3,579 357.5,580.7C355.8,584.2 357.3,588.4 360.8,590.1C364.3,591.8 368.5,590.3 370.2,586.9C371.9,583.4 370.5,579.2 367,577.5Z" style="fill-rule:nonzero;"/>
        <path d="M483,558.5C486.5,560.2 490.7,558.8 492.4,555.3C494.1,551.8 492.7,547.6 489.2,545.9C487.5,545.1 485.5,544.9 483.8,545.5C482,546.1 480.5,547.4 479.7,549.1C478,552.6 479.5,556.8 483,558.5Z" style="fill-rule:nonzero;"/>
        <path d="M565.4,457.3C563.7,456.5 561.8,456.3 560,456.9C558.2,457.5 556.7,458.8 555.9,460.5C554.2,464 555.7,468.2 559.2,469.9C562.7,471.6 566.9,470.1 568.6,466.7C570.3,463.2 568.9,459 565.4,457.3Z" style="fill-rule:nonzero;"/>
        <path d="M581.3,346.5C579.6,347.1 578,348.4 577.2,350.1C575.5,353.6 577,357.8 580.5,359.5C584,361.2 588.2,359.8 589.9,356.3C591.6,352.8 590.2,348.6 586.7,346.9C585,346.1 583,345.9 581.3,346.5Z" style="fill-rule:nonzero;"/>
        <path d="M556.4,238.6C554.7,237.8 552.8,237.6 551,238.3C549.1,238.9 547.7,240.2 546.9,241.9C545.2,245.4 546.7,249.6 550.2,251.3C553.7,253 557.9,251.5 559.6,248C561.3,244.5 559.9,240.3 556.4,238.6Z" style="fill-rule:nonzero;"/>
        <path d="M480,158.6C476.6,156.8 472.4,158.2 470.6,161.7C469.3,164.2 469.7,167.3 471.5,169.5C473.4,171.7 476.3,172.5 479.1,171.6C481.8,170.7 483.7,168.3 483.9,165.4C484.1,162.6 482.6,159.9 480,158.6Z" style="fill-rule:nonzero;"/>
        <path d="M357.6,142.3C361.1,144 365.3,142.5 367,139C368.7,135.5 367.3,131.3 363.8,129.6C362.1,128.8 360.2,128.6 358.4,129.3C356.5,129.9 355.1,131.2 354.3,132.9C352.6,136.4 354.1,140.6 357.6,142.3Z" style="fill-rule:nonzero;"/>
        <path d="M238.1,280.8L238.3,280.8C245,277.1 251.6,273.8 258.4,271C265.1,268.3 272.2,265.7 279.5,263.3L279.8,263.3C280.6,263 281.2,262.4 281.6,261.5C282,260.6 282,259.7 281.6,258.9L281.3,259.2C280.9,258.3 280.1,257.6 279.1,257.3L266,253.3L257.9,250.8C255.4,250.1 252.8,250.3 250.5,251.4L250.1,251.6L249.7,251.6C247.4,252.6 245.5,254.3 244.3,256.4L240.4,263.9L233.9,276.1C233.1,277.4 233.2,279 234.2,280.1C235.2,281.2 236.8,281.5 238.1,280.8Z" style="fill-rule:nonzero;"/>
        <path d="M439.4,260C439.3,261.5 440.2,262.8 441.6,263.3L441.9,263.3C449.1,265.6 456.1,268.1 462.8,270.9C469.5,273.8 476.2,277.1 482.9,280.7L483.1,280.7C483.9,281.1 484.9,281.1 485.7,280.8C486.5,280.5 487.2,279.8 487.5,279C487.9,278.1 487.8,277 487.3,276.1L480.9,263.9L476.7,256.2C475.4,253.9 473.5,252.2 471.1,251.3L470.7,251.3L470.3,251.1C468,250.1 465.4,249.8 462.9,250.5L454.8,253L441.7,257L442,257C440.6,257.3 439.5,258.5 439.4,260Z" style="fill-rule:nonzero;"/>
        <path d="M398.6,479.7C394,478.8 389.3,478.4 384.6,478.4C379,480.9 377.1,487 374,492C370.7,488.9 365.7,478.5 360.1,478.7C357.3,478.8 354.6,482.6 352.8,484.7C350.4,487.5 348.3,489.5 346.5,492C343.5,486.9 341.3,478.5 334.1,477.9C330.1,478.3 326.1,478.8 322.2,479.6C323.9,485.2 329.2,486.7 332.5,490.2C339.6,497.5 345.8,505.5 351.1,514.1C352.9,516.9 356.2,526.4 360.1,526.4C364,526.5 367.4,517.8 369.4,514.5C374.7,505.9 381,497.9 388,490.6C391.5,487.1 396.9,485.3 398.6,479.7ZM360.8,504C356.2,500.4 356.8,487.8 360.1,483.4C365.1,486.3 364.1,500.1 360.8,504Z" style="fill-rule:nonzero;"/>
        <path d="M463.2,481.4C465.7,482.1 468.3,481.9 470.6,480.8L471,480.6L471.4,480.6C473.8,479.6 475.7,477.9 477,475.7L481,468.1L487.2,456C487.7,455.1 487.7,454 487.2,453.1C486.9,452.3 486.2,451.6 485.4,451.3C484.5,451 483.6,451 482.8,451.4L482.6,451.4C475.9,455.1 469,458.4 462.5,461.2C455.8,464 448.9,466.6 441.6,468.9L441.3,468.9C440.5,469.2 439.9,469.8 439.5,470.7C439.1,471.6 439.1,472.5 439.5,473.3L439.8,473C440.2,473.9 441,474.6 442,474.9L455.1,478.9L463.2,481.4Z" style="fill-rule:nonzero;"/>
        <path d="M316.9,496.8L313,489.3C311.8,487.1 309.8,485.3 307.4,484.4L307,484.4L306.6,484.2C304.3,483.2 301.7,482.9 299.2,483.6L291,486.1L277.9,490.1L278.1,489.9C276.7,490.2 275.6,491.4 275.5,492.9C275.4,494.4 276.3,495.7 277.7,496.2L278,496.2C285.2,498.5 292.2,501 298.9,503.8C305.6,506.8 312.3,510 319,513.6L319.2,513.6C320.5,514.3 322.1,514 323.1,512.9C324,511.8 324.2,510.2 323.4,509L316.9,496.8Z" style="fill-rule:nonzero;"/>
        <path d="M279.3,475.3C280.8,475 281.8,474 281.9,472.5C282,471 281.1,469.7 279.7,469.2L279.4,469.2C272.2,466.8 265.2,464.5 258.5,461.5C251.8,458.5 245.1,455.3 238.4,451.7L238.1,451.7C236.8,451 235.2,451.3 234.2,452.4C233.3,453.5 233.1,455.1 233.9,456.3L240.3,468.5L244.3,476.1C245.6,478.4 247.5,480.1 249.9,481L250.3,481L250.7,481.2C253,482.2 255.6,482.4 258.1,481.8L266.2,479.3L279.3,475.3Z" style="fill-rule:nonzero;"/>
        <path d="M443,490.3L429.9,486.3L421.7,483.8C419.2,483.1 416.6,483.3 414.3,484.4L413.9,484.6L413.5,484.6C411.1,485.6 409.2,487.3 407.9,489.5L404,497L397.6,509.2C397.1,510.1 397,511.2 397.4,512.1C397.7,512.9 398.4,513.6 399.2,513.9C400.1,514.2 401,514.2 401.8,513.8L402,513.8C408.7,510.1 415.3,506.7 422.1,504C428.9,501.3 435.8,498.7 443.1,496.4L443.4,496.4C444.2,496.1 444.8,495.5 445.2,494.6C445.6,493.7 445.6,492.8 445.2,492C444.8,491.1 444,490.4 443,490.3Z" style="fill-rule:nonzero;"/>
        <path d="M350.7,287.3L329.1,297.4L328.8,297.6C327.8,298.1 327.2,299.1 327.2,300.2C327.2,301 327.5,301.8 328.1,302.3C328.7,303.1 329.5,303.4 330.2,303.4L390.7,303.4C392.1,303.4 393.3,302.4 393.6,301C393.9,299.6 393.2,298.2 391.9,297.6L370.3,287.4C367.2,285.7 363.9,284.5 360.5,283.6C357.1,284.4 353.8,285.7 350.7,287.3Z" style="fill-rule:nonzero;"/>
        <path d="M390.9,422.4L390.8,422.3L330.3,422.3C328.9,422.3 327.7,423.3 327.4,424.7C327.1,426.1 327.8,427.5 329.1,428.1L350.7,438.3C353.8,440 357.1,441.2 360.5,442C363.9,441.2 367.2,440 370.3,438.3L391.9,428.1L392.2,428.1C393.4,427.5 394.1,426.1 393.8,424.7C393.5,423.3 392.3,422.4 390.9,422.4Z" style="fill-rule:nonzero;"/>
        <path d="M405,110.3C403.6,110 402.1,110.2 400.9,111C399.7,111.8 398.8,113 398.5,114.4C398.2,115.6 398.4,117 399,118.2L411.6,138.5C412.9,140.5 414.9,142 417.3,142.5C419.6,143 422.1,142.6 424.2,141.4L444.1,129C445.9,127.8 446.9,125.7 446.5,123.6C446.1,121.5 444.6,119.7 442.6,119.2L442.3,119.2C441.7,119.1 441.1,119.1 440.4,119.2C428.6,120.7 416.6,117.8 406.7,111.1C406.2,110.8 405.6,110.5 405,110.3Z" style="fill-rule:nonzero;"/>
        <path d="M385.8,175.9C383.9,177 382.8,179.2 383.2,181.4C383.5,183.6 385.2,185.4 387.3,185.9L387.6,185.9C388.2,186 388.8,186 389.5,185.9C395.3,185.1 401.3,185.4 407,186.7C412.7,188.1 418.2,190.4 423.1,193.7C423.6,194 424.2,194.3 424.8,194.5C426.9,195 429.1,194.2 430.3,192.5C431.6,190.8 431.8,188.5 430.7,186.6L430.9,186.7L418.3,166.4C417,164.4 415,162.9 412.6,162.4C410.3,161.9 407.8,162.3 405.7,163.5L385.8,175.9Z" style="fill-rule:nonzero;"/>
        <path d="M373.1,162.4C372.8,163.8 373,165.3 373.8,166.5C374.6,167.7 375.8,168.6 377.2,168.9C378.5,169.2 379.8,169 381,168.4L380.7,168.4L401,155.8C405.2,153.1 406.5,147.5 403.9,143.3L391.5,123.4C390.3,121.6 388.2,120.6 386.1,121C384,121.4 382.2,122.9 381.7,124.9L381.7,125.2C381.6,125.8 381.6,126.5 381.7,127.1C383.3,138.9 380.5,150.8 373.9,160.7C373.6,161.2 373.3,161.8 373.1,162.4Z" style="fill-rule:nonzero;"/>
        <path d="M428.9,149.1C426.9,150.4 425.4,152.4 424.9,154.8C424.4,157.2 424.8,159.6 426,161.7L438.5,181.6C439.2,182.9 440.5,183.8 441.9,184.2C444.8,184.9 447.7,183.1 448.4,180.1L448.4,179.8C448.5,179.2 448.5,178.5 448.4,177.9C446.8,166.1 449.6,154.2 456.2,144.3C456.5,143.8 456.8,143.2 457,142.6C457.5,140.5 456.7,138.3 455,137.1C453.3,135.8 451,135.6 449.1,136.7L449.2,136.5L428.9,149.1Z" style="fill-rule:nonzero;"/>
        <path d="M417,159.2C420.8,158.1 422.8,154.2 421.7,150.4C420.6,146.7 416.7,144.6 412.9,145.7C411.1,146.2 409.6,147.5 408.7,149.1C407.8,150.7 407.7,152.7 408.2,154.5C409.3,158.2 413.2,160.3 417,159.2Z" style="fill-rule:nonzero;"/>
        <path d="M337.5,547.4C338.8,546.6 339.7,545.4 340.1,543.9C340.4,542.5 340.2,541 339.4,539.8C338.6,538.6 337.4,537.7 336,537.4L335.7,537.4C335.1,537.3 334.4,537.3 333.8,537.4C328,538.2 322,537.9 316.3,536.5C310.5,535.1 305.1,532.7 300.2,529.4C299.7,529.1 299.1,528.8 298.5,528.6C297.1,528.3 295.6,528.5 294.4,529.3C293.2,530.1 292.3,531.3 292,532.7C291.7,534 291.9,535.4 292.4,536.5L305,556.9C306.3,558.9 308.3,560.4 310.7,560.9C313,561.4 315.5,561 317.6,559.8L337.5,547.4Z" style="fill-rule:nonzero;"/>
        <path d="M316.6,611.8C317.1,612.1 317.7,612.4 318.3,612.6C319.7,612.9 321.2,612.7 322.4,611.9C323.6,611.1 324.5,609.9 324.8,608.5C325.1,607.2 324.9,605.9 324.3,604.7L324.4,605L311.8,584.7C310.5,582.7 308.5,581.2 306.1,580.7C303.8,580.2 301.3,580.6 299.2,581.8L279.3,594.2C277.5,595.4 276.5,597.5 276.9,599.6C277.3,601.7 278.8,603.5 280.8,604L281.1,604C281.7,604.1 282.4,604.1 283,604C294.8,602.4 306.7,605.2 316.6,611.8Z" style="fill-rule:nonzero;"/>
        <path d="M294.5,574.2C296.5,572.9 298,570.9 298.5,568.5C299,566.1 298.6,563.7 297.4,561.6L285,541.7C283.9,539.8 281.7,538.7 279.5,539.1C277.3,539.4 275.5,541.1 275,543.2L275,543.5C274.9,544.1 274.9,544.7 275,545.4C276.5,557.2 273.7,569.2 267.2,579.1C266.9,579.6 266.6,580.2 266.4,580.8C265.7,583.7 267.5,586.6 270.5,587.3C271.8,587.6 273.1,587.4 274.3,586.7L274.2,586.8L294.5,574.2Z" style="fill-rule:nonzero;"/>
        <path d="M350.3,560.9C350.8,558.8 350.1,556.6 348.4,555.3C346.7,554 344.4,553.8 342.5,554.9L342.6,554.8L322.3,567.4C320.2,568.7 318.8,570.7 318.2,573.1C317.6,575.5 318.1,577.9 319.4,580L331.8,599.9C332.9,601.7 335.1,602.7 337.2,602.4C339.3,602.1 341.1,600.5 341.6,598.4L341.6,598.1C341.7,597.5 341.7,596.8 341.6,596.2C340.1,584.4 342.9,572.5 349.5,562.6C349.8,562.1 350.1,561.5 350.3,560.9Z" style="fill-rule:nonzero;"/>
        <path d="M306.3,564C302.6,565.2 300.5,569.1 301.7,572.8C302.5,575.5 304.9,577.5 307.7,577.8C310.5,578.1 313.2,576.6 314.6,574.1C315.9,571.6 315.6,568.5 313.8,566.3C312,564.1 309,563.2 306.3,564Z" style="fill-rule:nonzero;"/>
        <path d="M527.9,168.9C527.6,168.3 527.3,167.8 526.9,167.4C525.4,165.9 523.1,165.5 521.1,166.3C519.1,167.1 517.8,169 517.8,171.2L518.3,195.1C518.4,197.5 519.4,199.8 521.1,201.5C522.8,203.2 525.2,204.1 527.6,204L551,203.5C552.5,203.5 553.9,202.9 555,201.8C556,200.8 556.5,199.4 556.5,197.9C556.5,196.5 555.9,195.1 554.8,194.1L554.6,193.9C554.1,193.4 553.5,193 552.8,192.8C541.9,188.1 533,179.6 527.9,168.9Z" style="fill-rule:nonzero;"/>
        <path d="M500.1,248.5C500.4,249.1 500.7,249.6 501.1,250C502.1,251 503.5,251.5 505,251.5C506.4,251.5 507.8,250.9 508.8,249.8C509.7,248.8 510.2,247.6 510.3,246.3L510.4,246.4L509.9,222.5C509.8,220.1 508.8,217.8 507.1,216.1C505.4,214.4 503,213.5 500.6,213.6L477.2,214.1C475.7,214.1 474.3,214.7 473.2,215.8C472.2,216.8 471.7,218.2 471.7,219.7C471.7,221.1 472.3,222.5 473.4,223.5L473.6,223.7C474.1,224.1 474.6,224.4 475.2,224.7C486.1,229.4 495,237.8 500.1,248.5Z" style="fill-rule:nonzero;"/>
        <path d="M472.8,195.8C471.8,196.8 471.2,198.2 471.2,199.6C471.2,201 471.8,202.4 472.8,203.4C473.8,204.4 475.1,205 476.5,205.1L500.4,204.6C502.8,204.5 505.1,203.5 506.8,201.8C508.5,200.1 509.4,197.7 509.3,195.3L508.8,171.9C508.8,169.7 507.5,167.7 505.4,166.8C503.3,166 501,166.5 499.4,168.1L499.2,168.3C498.8,168.8 498.5,169.3 498.2,169.9C493.5,180.8 485,189.7 474.3,194.8C473.7,195.1 473.2,195.4 472.8,195.8Z" style="fill-rule:nonzero;"/>
        <path d="M522.7,250.6C524.7,251.4 527.1,250.9 528.6,249.4L528.8,249.2C529.2,248.7 529.6,248.2 529.8,247.6C534.5,236.7 543,227.8 553.7,222.6C554.3,222.3 554.8,222 555.2,221.6C556.2,220.6 556.8,219.2 556.8,217.8C556.8,216.4 556.2,215 555.2,214C554.4,213.1 553.1,212.5 551.7,212.4L527.7,212.9C525.3,213 523,214 521.3,215.7C519.6,217.4 518.7,219.8 518.8,222.2L519.3,245.6C519.3,247.8 520.6,249.8 522.7,250.6Z" style="fill-rule:nonzero;"/>
        <path d="M517.7,214.8C520.1,213.3 521.4,210.5 521,207.7C520.6,204.9 518.5,202.6 515.7,201.9C512,201 508.3,203.3 507.3,207.1C506.6,209.9 507.7,212.8 509.9,214.4C512.1,216 515.3,216.2 517.7,214.8Z" style="fill-rule:nonzero;"/>
        <path d="M249.8,499.5C249.3,499.1 248.8,498.8 248.2,498.5C237.3,493.8 228.4,485.3 223.3,474.6C223,474 222.7,473.5 222.3,473.1C220.8,471.6 218.5,471.2 216.5,472C214.4,472.9 213.1,474.7 213,476.8L213.5,500.7C213.5,503.1 214.5,505.4 216.3,507.1C218,508.8 220.4,509.7 222.8,509.6L246.2,509.1C248.4,509.1 250.4,507.8 251.3,505.7C252.1,503.6 251.6,501.3 250,499.7L249.8,499.5Z" style="fill-rule:nonzero;"/>
        <path d="M168.7,529.3C169.2,529.7 169.7,530 170.3,530.3C181.2,535 190.1,543.5 195.2,554.2C195.5,554.8 195.8,555.3 196.2,555.7C197.7,557.2 200,557.6 202,556.8C204.1,556 205.4,554.1 205.5,552L205,528.1C204.9,525.7 203.9,523.4 202.2,521.7C200.5,520 198.1,519.1 195.7,519.2L172.3,519.7C170.1,519.7 168.1,521 167.2,523.1C166.4,525.2 166.9,527.5 168.5,529.1L168.7,529.3Z" style="fill-rule:nonzero;"/>
        <path d="M171.7,510.7L195.6,510.2C200.6,510.1 204.6,505.9 204.5,500.9L204,477.5C204,476 203.4,474.6 202.3,473.5C201.3,472.5 199.9,472 198.4,472C197,472 195.6,472.6 194.6,473.7L194.4,473.9C194,474.4 193.7,474.9 193.4,475.5C188.7,486.4 180.2,495.3 169.5,500.4C168.9,500.7 168.4,501 168,501.4C167,502.4 166.5,503.8 166.5,505.3C166.5,506.7 167.1,508.1 168.2,509.1C169.1,510.1 170.4,510.6 171.7,510.7Z" style="fill-rule:nonzero;"/>
        <path d="M216.2,555.3C217.2,556.3 218.6,556.8 220.1,556.8C221.6,556.8 222.9,556.2 223.9,555.1L224.1,554.9C224.5,554.4 224.8,553.9 225.1,553.3C229.8,542.4 238.2,533.5 248.9,528.4C249.5,528.1 250,527.8 250.4,527.4C251.9,525.9 252.4,523.6 251.5,521.6C250.7,519.6 248.8,518.3 246.7,518.3L246.9,518.1L222.9,518.6C220.5,518.7 218.2,519.7 216.5,521.4C214.8,523.1 213.9,525.5 214,527.9L214.5,551.3C214.5,552.8 215.1,554.2 216.2,555.3Z" style="fill-rule:nonzero;"/>
        <path d="M210.9,507.5C209.1,507.1 207.2,507.4 205.6,508.3C204,509.4 202.8,510.9 202.4,512.7C201.5,516.5 203.8,520.3 207.6,521.2C211.4,522.1 215.2,519.8 216.1,516C217,512.2 214.7,508.4 210.9,507.5Z" style="fill-rule:nonzero;"/>
        <path d="M599,268.5C598.6,267.1 597.6,265.9 596.3,265.2C595,264.5 593.5,264.4 592.1,264.9C590.8,265.4 589.8,266.2 589.2,267.4L578.3,288.7C576,293.2 577.8,298.6 582.2,300.9L603.1,311.5C604.4,312.2 606,312.4 607.4,311.9C608.8,311.5 609.9,310.5 610.5,309.2C611.1,307.9 611.3,306.4 610.8,305.1L610.8,304.8C610.6,304.2 610.3,303.7 609.9,303.2C606.2,298.6 603.4,293.4 601.6,287.7C599.8,282.1 598.9,276.2 599.2,270.3C599.2,269.7 599.2,269.1 599,268.5Z" style="fill-rule:nonzero;"/>
        <path d="M526.5,294.4C530.2,299 533,304.2 534.8,309.8C536.6,315.4 537.4,321.3 537.2,327.2C537.2,327.8 537.2,328.5 537.4,329.1C537.8,330.5 538.8,331.6 540.1,332.3C541.4,333 542.9,333.1 544.2,332.6C545.4,332.2 546.5,331.3 547.2,330.1L558.1,308.8C559.2,306.7 559.4,304.2 558.6,301.9C557.8,299.6 556.2,297.7 554.1,296.6L533.3,286C531.3,284.9 528.9,285.2 527.2,286.6C525.5,288 524.8,290.4 525.6,292.5L525.6,292.8C525.8,293.4 526.2,293.9 526.5,294.4Z" style="fill-rule:nonzero;"/>
        <path d="M539.9,267.5C539.3,267.5 538.6,267.5 538,267.7C536.6,268.1 535.5,269.1 534.8,270.4C534.1,271.7 534,273.2 534.5,274.6C534.9,275.9 535.8,276.9 536.9,277.6L536.8,277.8L558.1,288.6C560.2,289.7 562.7,289.9 565,289.1C567.3,288.4 569.2,286.7 570.3,284.6L580.9,263.7C581.6,262.4 581.8,260.8 581.3,259.4C580.9,258 579.9,256.9 578.6,256.2C577.3,255.5 575.8,255.4 574.5,255.9L574.2,255.9C573.6,256.1 573.1,256.5 572.6,256.8C563.4,264.2 551.7,268 539.9,267.5Z" style="fill-rule:nonzero;"/>
        <path d="M555.9,340.1C557.4,341.8 559.8,342.5 561.9,341.7L562.2,341.7C562.8,341.5 563.3,341.1 563.8,340.8C573,333.4 584.7,329.6 596.5,330.1C597.1,330.1 597.7,330.1 598.3,329.9C599.7,329.5 600.9,328.5 601.6,327.2C602.3,325.9 602.4,324.4 601.9,323C601.5,321.7 600.6,320.7 599.5,320L599.6,319.8L578.2,309C576,307.9 573.5,307.7 571.2,308.4C568.9,309.1 567,310.8 565.9,313L555.3,333.9C554.2,335.9 554.4,338.3 555.9,340.1Z" style="fill-rule:nonzero;"/>
        <path d="M568.6,306C571.5,305.9 574,304 574.9,301.2C575.8,298.5 575,295.5 572.9,293.6C569.9,291.1 565.6,291.4 563,294.1C561,296.2 560.6,299.3 561.8,301.9C563,304.5 565.7,306.1 568.6,306Z" style="fill-rule:nonzero;"/>
        <path d="M169.2,426.5L190,437.1C192,438.2 194.4,437.9 196.1,436.5C197.8,435 198.5,432.7 197.7,430.6L197.7,430.3C197.5,429.7 197.2,429.2 196.8,428.7C189.4,419.5 185.6,407.8 186.1,396C186.1,395.4 186.1,394.7 185.9,394.1C185.3,392.1 183.5,390.6 181.3,390.4C179.1,390.2 177.2,391.3 176.2,393L165.3,414.3C164.2,416.4 164,418.9 164.7,421.2C165.4,423.5 167.1,425.4 169.2,426.5Z" style="fill-rule:nonzero;"/>
        <path d="M124.3,454.7C124.7,456.1 125.7,457.3 127,458C128.3,458.7 129.9,458.8 131.3,458.3C132.5,457.8 133.6,456.9 134.2,455.8L145.1,434.5C147.4,430 145.6,424.6 141.1,422.3L120.2,411.7C118.2,410.6 115.8,410.9 114.1,412.3C112.4,413.7 111.7,416.1 112.5,418.2L112.5,418.5C112.7,419.1 113.1,419.6 113.4,420.1C120.8,429.3 124.6,441 124.1,452.8C124.1,453.4 124.2,454.1 124.3,454.7Z" style="fill-rule:nonzero;"/>
        <path d="M168.4,385.1C168,383.7 167,382.6 165.7,381.9C164.4,381.2 162.9,381.1 161.5,381.6L161.2,381.6C160.6,381.8 160.1,382.2 159.6,382.5C150.4,389.9 138.7,393.7 126.9,393.2C126.3,393.2 125.6,393.2 125,393.4C122.1,394.3 120.6,397.4 121.5,400.3C121.9,401.6 122.8,402.6 124,403.2L123.8,403.4L145.1,414.3C147.3,415.4 149.8,415.6 152.1,414.9C154.4,414.1 156.3,412.5 157.4,410.3L168,389.4C168.7,388.1 168.9,386.5 168.4,385.1Z" style="fill-rule:nonzero;"/>
        <path d="M183.6,455.7C184.2,455.7 184.8,455.7 185.4,455.5C187.5,454.9 188.9,453.1 189.2,451C189.5,448.9 188.4,446.8 186.5,445.7L186.6,445.4L165.2,434.6C163.1,433.5 160.6,433.3 158.3,434.1C156,434.8 154.1,436.5 153,438.6L142.4,459.5C141.3,461.5 141.5,463.9 143,465.7C144.5,467.4 146.9,468.1 149,467.3L149.3,467.3C149.9,467.1 150.4,466.8 150.9,466.4C160.1,459 171.8,455.2 183.6,455.7Z" style="fill-rule:nonzero;"/>
        <path d="M149.9,419.7C148,421.8 147.5,424.9 148.7,427.5C149.9,430.1 152.6,431.7 155.4,431.5C158.3,431.3 160.7,429.5 161.7,426.8C162.6,424.1 161.8,421.1 159.7,419.2C156.8,416.7 152.5,416.9 149.9,419.7Z" style="fill-rule:nonzero;"/>
        <path d="M614.1,397.6C614.6,395.5 613.7,393.3 612,392.1C610.2,390.9 607.9,390.8 606.1,391.9L586.1,405C581.9,407.8 580.8,413.4 583.5,417.6L596.6,437.2C597.8,439 600,439.9 602.1,439.5C604.2,439.1 605.9,437.5 606.4,435.4L606.4,435.1C606.5,434.5 606.5,433.8 606.4,433.2C604.5,421.5 607,409.4 613.3,399.3C613.6,398.8 613.9,398.2 614.1,397.6Z" style="fill-rule:nonzero;"/>
        <path d="M562.5,406.9C563,404.5 562.5,402.1 561.2,400.1L548,380.5C546.8,378.7 544.7,377.7 542.5,378.1C540.4,378.5 538.7,380.1 538.2,382.3L538.2,382.6C538.1,383.2 538.1,383.9 538.2,384.5C540.1,396.3 537.6,408.3 531.3,418.4C531,418.9 530.7,419.5 530.5,420.1C530.2,421.5 530.4,423 531.2,424.3C532,425.5 533.3,426.4 534.7,426.7C536,427 537.4,426.7 538.5,426L538.6,425.8L558.6,412.7C560.6,411.4 562,409.3 562.5,406.9Z" style="fill-rule:nonzero;"/>
        <path d="M600.7,384.7C602,383.9 602.9,382.6 603.2,381.2C603.5,379.8 603.3,378.3 602.5,377C601.7,375.8 600.4,374.9 599,374.6L598.7,374.6C598.1,374.5 597.5,374.5 596.8,374.6C585.1,376.5 573,374 563,367.7C562.5,367.4 561.9,367.1 561.3,366.9C559.9,366.6 558.4,366.8 557.1,367.6C555.9,368.4 555,369.7 554.7,371.1C554.4,372.5 554.6,373.9 555.4,375.1L568.5,395C569.8,397 571.9,398.4 574.3,398.9C576.7,399.4 579.1,398.9 581.1,397.6L600.7,384.7Z" style="fill-rule:nonzero;"/>
        <path d="M583.6,450.6C585.7,451.1 587.9,450.2 589.1,448.5C590.2,446.8 590.3,444.4 589.2,442.6L576.1,422.6C573.3,418.4 567.7,417.3 563.5,420.1L544,433.2C542.2,434.4 541.2,436.5 541.6,438.7C542,440.8 543.6,442.5 545.8,443L546.1,443C546.7,443.1 547.4,443.1 548,443C559.7,441.1 571.8,443.6 581.9,449.9C582.4,450.2 583,450.5 583.6,450.6Z" style="fill-rule:nonzero;"/>
        <path d="M570.1,402.2C566.4,403.4 564.4,407.4 565.7,411.1C566.9,414.8 570.9,416.8 574.6,415.5C578.3,414.2 580.3,410.3 579,406.6C577.7,402.9 573.7,401 570.1,402.2Z" style="fill-rule:nonzero;"/>
        <path d="M162.3,323.1L175.4,342.7C176.6,344.5 178.8,345.4 180.9,345C183,344.6 184.7,343 185.2,340.9L185.2,340.6C185.3,340 185.3,339.4 185.2,338.7C183.3,327 185.8,314.9 192.1,304.8C192.4,304.3 192.7,303.7 192.9,303.1C193.4,301 192.5,298.8 190.8,297.6C189,296.4 186.7,296.3 184.8,297.4L164.8,310.5C160.6,313.3 159.5,318.9 162.3,323.1Z" style="fill-rule:nonzero;"/>
        <path d="M109.2,325.3C108.9,326.7 109.1,328.2 109.9,329.5C110.7,330.7 112,331.6 113.4,331.9C114.8,332.1 116.2,331.9 117.3,331.3L137.3,318.2C141.5,315.4 142.6,309.8 139.8,305.6L126.7,286C125.5,284.2 123.3,283.3 121.2,283.7C119.1,284.1 117.4,285.7 116.9,287.8L116.9,288.1C116.8,288.7 116.8,289.4 116.9,290C118.7,301.7 116.3,313.6 110,323.6C109.7,324.1 109.4,324.7 109.2,325.3Z" style="fill-rule:nonzero;"/>
        <path d="M139.8,272.6C138.4,272.3 136.9,272.5 135.6,273.3C134.3,274.1 133.5,275.4 133.2,276.8C132.9,278.1 133.2,279.4 133.9,280.6L134.1,280.6L147.2,300.6C148.5,302.6 150.6,304 153,304.5C155.4,305 157.8,304.5 159.8,303.2L179.4,290.1C181.2,288.9 182.1,286.7 181.7,284.6C181.3,282.5 179.7,280.8 177.6,280.3L177.3,280.3C176.7,280.2 176,280.2 175.4,280.3C163.7,282.2 151.6,279.7 141.5,273.4C141,273.1 140.4,272.8 139.8,272.6Z" style="fill-rule:nonzero;"/>
        <path d="M122.7,338.6C120.9,339.8 120,342 120.4,344.1C120.8,346.2 122.4,347.9 124.5,348.4L124.8,348.4C125.4,348.5 126,348.5 126.7,348.4C138.4,346.5 150.5,349 160.6,355.3C161.1,355.6 161.7,355.9 162.3,356C164.4,356.5 166.6,355.6 167.8,353.9C169,352.2 169.1,349.9 168,348.1L154.9,328.1C152.1,323.9 146.5,322.8 142.3,325.5L122.7,338.6Z" style="fill-rule:nonzero;"/>
        <path d="M153.3,321C157,319.8 159,315.8 157.7,312.1C157.1,310.3 155.8,308.9 154.2,308C152.5,307.2 150.6,307.1 148.8,307.7C145.1,308.9 143.1,312.9 144.4,316.6C145.6,320.3 149.6,322.3 153.3,321Z" style="fill-rule:nonzero;"/>
        <path d="M538.8,546.1C539.2,545.6 539.5,545 539.7,544.4C541.8,538.9 544.8,533.8 548.6,529.3C552.5,524.8 557.1,521.1 562.3,518.3C562.8,518 563.3,517.6 563.8,517.2C565.2,515.6 565.5,513.3 564.7,511.4C563.8,509.5 561.9,508.2 559.7,508.3L559.7,508L535.8,509.7C533.4,509.9 531.1,511 529.6,512.9C528,514.7 527.2,517.1 527.4,519.6L529.1,543C529.2,544.5 529.8,545.9 531,546.9C532.1,547.8 533.5,548.3 534.9,548.2C536.3,548.1 537.7,547.4 538.6,546.3L538.8,546.1Z" style="fill-rule:nonzero;"/>
        <path d="M484.2,504.3L508.1,502.6C510.5,502.4 512.8,501.3 514.4,499.5C516,497.7 516.8,495.3 516.5,492.8L514.8,469.4C514.7,467.2 513.3,465.2 511.2,464.5C509.1,463.8 506.8,464.4 505.3,466.1L505.1,466.3C504.7,466.8 504.4,467.4 504.2,468C500.1,479.2 492.1,488.5 481.6,494.1C481.1,494.4 480.6,494.8 480.1,495.2C478.1,497.5 478.4,500.9 480.7,502.8C481.7,503.8 483,504.3 484.2,504.3Z" style="fill-rule:nonzero;"/>
        <path d="M535.3,500.7L558.6,499C560.1,499 561.5,498.3 562.5,497.1C564.5,494.8 564.2,491.4 561.9,489.5L561.7,489.3C561.2,488.9 560.6,488.6 560,488.4C548.8,484.3 539.5,476.3 533.9,465.8C533.6,465.3 533.2,464.8 532.8,464.3C531.2,462.9 528.9,462.6 527,463.5C525.1,464.4 523.8,466.4 523.9,468.5L523.8,468.4L525.5,492.3C525.7,494.7 526.8,497 528.6,498.6C530.4,500.2 532.8,501 535.3,500.7Z" style="fill-rule:nonzero;"/>
        <path d="M510,546.4C510.3,546.9 510.7,547.4 511.1,547.9C512.7,549.3 515,549.7 516.9,548.8C518.9,547.9 520.1,546 520.2,543.9L518.5,520C518.3,517.6 517.2,515.3 515.4,513.7C513.6,512.1 511.2,511.3 508.7,511.5L485.3,513.2C483.1,513.3 481.1,514.7 480.4,516.8C479.7,518.9 480.3,521.2 482,522.7L482.2,522.9C482.7,523.3 483.3,523.6 483.9,523.8C495.1,527.9 504.4,536 510,546.4Z" style="fill-rule:nonzero;"/>
        <path d="M529.1,507.4C529.5,505.6 529.1,503.7 528,502.1C526.9,500.6 525.3,499.6 523.5,499.2C519.7,498.5 516,501 515.3,504.8C514.6,508.6 517.1,512.3 520.9,513C524.7,513.7 528.4,511.2 529.1,507.4Z" style="fill-rule:nonzero;"/>
        <path d="M243.1,228.2C244.6,226.6 245,224.3 244.2,222.3C243.4,220.3 241.3,218.9 239.1,219L215.2,220.7C212.8,220.9 210.5,222 208.9,223.8C207.3,225.6 206.5,228 206.7,230.5L208.4,253.9C208.5,255.4 209.1,256.8 210.3,257.8C212.6,259.8 216,259.5 217.9,257.2L218.1,257C218.5,256.5 218.8,256 219,255.4C223.1,244.2 231.2,234.9 241.6,229.3C242.1,229 242.6,228.6 243.1,228.2Z" style="fill-rule:nonzero;"/>
        <path d="M161,205C160.5,205.3 159.9,205.7 159.5,206.1C158.6,207.2 158.1,208.6 158.2,210C158.3,211.4 159,212.8 160.1,213.7C161.1,214.7 162.4,215.2 163.6,215.2L187.5,213.5C189.9,213.3 192.2,212.2 193.8,210.4C195.4,208.6 196.2,206.2 195.9,203.7L194.2,180.3C194.1,178.8 193.5,177.4 192.3,176.4C191.2,175.5 189.8,175 188.4,175.1C187,175.2 185.6,175.9 184.7,177L184.5,177.2C184.1,177.7 183.8,178.3 183.6,178.9C179.5,190.1 171.4,199.4 161,205Z" style="fill-rule:nonzero;"/>
        <path d="M203.2,179.4L203.2,179.4Z" style="fill-rule:nonzero;"/>
        <path d="M241.1,200.1C240.6,199.7 240,199.5 239.4,199.3C228.2,195.2 218.9,187.1 213.3,176.7C213,176.2 212.6,175.7 212.2,175.2C211.1,174.3 209.7,173.8 208.2,173.9C206.8,174 205.4,174.7 204.5,175.8C203.6,176.8 203.2,178.1 203.2,179.4L204.9,203.2C205.1,205.6 206.2,207.9 208.1,209.4C209.9,211 212.3,211.8 214.8,211.6L238.1,209.9C240.3,209.8 242.2,208.3 242.9,206.2C243.6,204.1 243,201.8 241.3,200.3L241.1,200.1Z" style="fill-rule:nonzero;"/>
        <path d="M189.3,257.5C189.6,258 190,258.5 190.4,259C192,260.5 194.3,260.9 196.3,260C198.4,259.1 199.6,257.1 199.6,254.9L197.9,231C197.7,228.6 196.6,226.3 194.7,224.8C192.8,223.3 190.5,222.4 188,222.6L164.6,224.3C162.4,224.4 160.4,225.8 159.7,227.9C159,230 159.6,232.3 161.3,233.8L161.5,234C162,234.4 162.6,234.7 163.2,234.9C174.4,239 183.7,247.1 189.3,257.5Z" style="fill-rule:nonzero;"/>
        <path d="M195.5,213.2C193.9,215.6 193.9,218.7 195.5,221C197.1,223.4 199.9,224.5 202.7,224C205.5,223.4 207.7,221.2 208.2,218.5C209,214.6 206.5,210.9 202.7,210.2C199.9,209.7 197.1,210.8 195.5,213.2Z" style="fill-rule:nonzero;"/>
        <path d="M418.7,610.8C419.3,610.6 419.8,610.3 420.3,609.9C429.6,602.5 441.3,598.7 453.1,599.2C453.7,599.2 454.3,599.2 454.9,599C457,598.4 458.4,596.6 458.7,594.5C459,592.3 457.9,590.2 456,589.1L434.7,578.2C432.6,577.1 430.1,576.9 427.8,577.7C425.5,578.4 423.6,580.1 422.5,582.2L411.9,603.1C410.8,605.1 411.1,607.5 412.5,609.2C413.9,610.9 416.3,611.6 418.4,610.8L418.7,610.8Z" style="fill-rule:nonzero;"/>
        <path d="M437.7,528.9C437.3,527.5 436.3,526.4 435,525.7C433.7,525 432.2,524.9 430.8,525.4L430.5,525.4C429.9,525.6 429.4,526 428.9,526.3C419.7,533.7 408.1,537.5 396.2,537C395.6,537 395,537.1 394.4,537.2C391.6,538.1 390,541.2 390.9,544C391.3,545.2 392.2,546.3 393.3,546.9L393.2,547.1L414.5,558C416.6,559.1 419.1,559.3 421.4,558.6C423.7,557.9 425.6,556.2 426.7,554.1L437.3,533.2C438,531.9 438.2,530.3 437.7,528.9Z" style="fill-rule:nonzero;"/>
        <path d="M438.8,570.2L459.7,580.8C461.7,581.9 464.1,581.6 465.8,580.2C467.5,578.8 468.2,576.4 467.4,574.3L467.4,574C467.2,573.4 466.8,572.9 466.5,572.4C462.8,567.8 460,562.6 458.2,557C456.4,551.4 455.5,545.5 455.8,539.6C455.8,539 455.8,538.3 455.6,537.7C455.2,536.3 454.2,535.2 452.9,534.5C451.6,533.8 450.1,533.7 448.8,534.2C447.5,534.6 446.5,535.5 445.8,536.6L445.6,536.7L434.8,558C433.7,560.2 433.5,562.7 434.3,564.9C435.1,567.2 436.7,569.1 438.8,570.2Z" style="fill-rule:nonzero;"/>
        <path d="M393.5,598.4C394.1,600.4 395.9,601.9 398.1,602.1C400.2,602.3 402.3,601.3 403.4,599.4L403.6,599.5L414.4,578.2C415.5,576.1 415.7,573.6 414.9,571.3C414.2,569 412.5,567.1 410.4,566L389.5,555.4C387.5,554.3 385.1,554.5 383.3,556C381.6,557.5 380.9,559.9 381.7,562L381.7,562.3C381.9,562.9 382.3,563.4 382.6,563.9C390,573.1 393.8,584.8 393.3,596.6C393.3,597.2 393.3,597.8 393.5,598.4Z" style="fill-rule:nonzero;"/>
        <path d="M421.5,561.6C418.9,562.8 417.3,565.5 417.5,568.3C417.7,571.2 419.5,573.6 422.2,574.6C424.9,575.5 427.9,574.7 429.8,572.6C432.3,569.8 432.1,565.4 429.3,562.8C427.2,560.9 424.1,560.4 421.5,561.6Z" style="fill-rule:nonzero;"/>
        <path d="M285.6,194.4C286,195.8 287,196.9 288.3,197.5C289.6,198.1 291.1,198.3 292.4,197.8L292.7,197.8C293.3,197.6 293.8,197.3 294.3,196.9C303.5,189.5 315.2,185.7 327,186.2C327.6,186.2 328.2,186.2 328.8,186C330.8,185.3 332.3,183.6 332.5,181.4C332.7,179.2 331.7,177.2 329.8,176.2L330.2,176.1L308.9,165.2C306.8,164.1 304.3,163.9 302,164.7C299.7,165.4 297.8,167.1 296.7,169.2L286,190.1C285.3,191.4 285.1,193 285.6,194.4Z" style="fill-rule:nonzero;"/>
        <path d="M270.4,123.9C269.8,123.9 269.1,124 268.5,124.2C265.7,125.1 264.1,128.2 265,131C265.5,132.3 266.3,133.3 267.4,134L288.7,144.9C290.8,146 293.3,146.2 295.6,145.4C297.9,144.7 299.8,143 300.9,140.9L311.5,120C312.6,118 312.3,115.6 310.9,113.9C309.4,112.2 307.1,111.5 305,112.3L304.7,112.3C304.1,112.5 303.6,112.9 303.1,113.2C293.9,120.6 282.2,124.4 270.4,123.9Z" style="fill-rule:nonzero;"/>
        <path d="M329.7,124.8C329.3,123.4 328.3,122.3 327,121.6C325.7,120.9 324.2,120.8 322.8,121.3C321.6,121.7 320.5,122.6 319.9,123.7L319.8,123.7L309,145C307.9,147.1 307.7,149.6 308.5,151.9C309.3,154.2 310.9,156.1 313,157.2L333.9,167.8C335.9,168.9 338.3,168.6 340,167.2C341.7,165.7 342.4,163.4 341.6,161.3L341.6,161C341.3,160.4 341,159.9 340.6,159.4C333.2,150.2 329.4,138.5 329.9,126.7C329.9,126.1 329.9,125.4 329.7,124.8Z" style="fill-rule:nonzero;"/>
        <path d="M284.7,153L263.8,142.4C262.5,141.7 260.9,141.5 259.5,142C256.7,142.9 255.1,146 256,148.9L256,149.2C256.2,149.8 256.6,150.3 256.9,150.8C264.3,160 268.1,171.7 267.6,183.5C267.6,184.1 267.6,184.7 267.8,185.3C268.2,186.7 269.2,187.8 270.5,188.5C271.8,189.2 273.3,189.3 274.6,188.8C275.9,188.4 276.9,187.5 277.6,186.4L277.8,186.5L288.7,165.2C289.8,163.1 290,160.6 289.2,158.3C288.5,156 286.8,154.1 284.7,153Z" style="fill-rule:nonzero;"/>
        <path d="M304,159.7C306.5,156.8 306.3,152.5 303.5,149.9C301.4,148 298.3,147.5 295.7,148.7C293.1,149.9 291.5,152.6 291.7,155.4C291.9,158.3 293.7,160.7 296.4,161.7C299.1,162.6 302.1,161.8 304,159.7Z" style="fill-rule:nonzero;"/>
    </g>
</svg>
